<svg width="18" height="18" viewBox="0 0 18 18" fill="none" xmlns="http://www.w3.org/2000/svg">
<path d="M14.6233 5.99209L9.00054 11.4731L3.37779 5.99209C3.27734 5.89396 3.14248 5.83902 3.00204 5.83902C2.86161 5.83902 2.72675 5.89396 2.62629 5.99209C2.57765 6.03975 2.53901 6.09664 2.51263 6.15942C2.48624 6.2222 2.47266 6.28961 2.47266 6.35771C2.47266 6.42581 2.48624 6.49323 2.51263 6.55601C2.53901 6.61879 2.57765 6.67568 2.62629 6.72334L8.60792 12.5553C8.71296 12.6577 8.85385 12.715 9.00054 12.715C9.14723 12.715 9.28812 12.6577 9.39317 12.5553L15.3748 6.72446C15.4238 6.67677 15.4627 6.61974 15.4893 6.55675C15.5159 6.49376 15.5296 6.42608 15.5296 6.35771C15.5296 6.28934 15.5159 6.22167 15.4893 6.15868C15.4627 6.09569 15.4238 6.03866 15.3748 5.99096C15.2743 5.89283 15.1395 5.83789 14.999 5.83789C14.8586 5.83789 14.7237 5.89283 14.6233 5.99096V5.99209Z" fill="#9CA3AF"/>
</svg>
